<mxfile host="app.diagrams.net" modified="2021-09-22T00:48:21.797Z" agent="5.0 (Windows NT 10.0; Win64; x64) AppleWebKit/537.36 (KHTML, like Gecko) Chrome/93.0.4577.82 Safari/537.36" etag="P-A-gHXgcXr7pKU0H0OI" version="15.0.4" type="github">
  <diagram id="ryjw0Ng4W9fMJaP_ifFG" name="Page-1">
    <mxGraphModel dx="700" dy="1720" grid="1" gridSize="10" guides="1" tooltips="1" connect="1" arrows="1" fold="1" page="1" pageScale="1" pageWidth="827" pageHeight="1169" math="0" shadow="0">
      <root>
        <mxCell id="0" />
        <mxCell id="1" parent="0" />
        <mxCell id="OnlBeC4UY8B8spM-u4OG-24" style="rounded=1;sketch=0;jumpStyle=line;orthogonalLoop=1;jettySize=auto;html=1;entryX=0.5;entryY=0;entryDx=0;entryDy=0;shadow=0;strokeColor=#000000;strokeWidth=1;startArrow=none;startFill=0;endArrow=none;endFill=0;" edge="1" parent="1" source="OnlBeC4UY8B8spM-u4OG-12" target="OnlBeC4UY8B8spM-u4OG-16">
          <mxGeometry relative="1" as="geometry" />
        </mxCell>
        <mxCell id="OnlBeC4UY8B8spM-u4OG-12" value="Quarto" style="swimlane;fontStyle=1;align=center;verticalAlign=top;childLayout=stackLayout;horizontal=1;startSize=26;horizontalStack=0;resizeParent=1;resizeParentMax=0;resizeLast=0;collapsible=1;marginBottom=0;" vertex="1" parent="1">
          <mxGeometry x="70" y="30" width="160" height="100" as="geometry" />
        </mxCell>
        <mxCell id="OnlBeC4UY8B8spM-u4OG-13" value="tipo:string&#xa;cnpj:string&#xa;" style="text;strokeColor=none;fillColor=none;align=left;verticalAlign=top;spacingLeft=4;spacingRight=4;overflow=hidden;rotatable=0;points=[[0,0.5],[1,0.5]];portConstraint=eastwest;" vertex="1" parent="OnlBeC4UY8B8spM-u4OG-12">
          <mxGeometry y="26" width="160" height="74" as="geometry" />
        </mxCell>
        <mxCell id="OnlBeC4UY8B8spM-u4OG-30" style="edgeStyle=none;rounded=0;sketch=0;jumpStyle=line;orthogonalLoop=1;jettySize=auto;html=1;entryX=0.5;entryY=0;entryDx=0;entryDy=0;shadow=0;startArrow=none;startFill=0;endArrow=none;endFill=0;strokeColor=#000000;strokeWidth=1;" edge="1" parent="1" source="OnlBeC4UY8B8spM-u4OG-16" target="OnlBeC4UY8B8spM-u4OG-28">
          <mxGeometry relative="1" as="geometry" />
        </mxCell>
        <mxCell id="OnlBeC4UY8B8spM-u4OG-16" value="Aluguel" style="swimlane;fontStyle=1;align=center;verticalAlign=top;childLayout=stackLayout;horizontal=1;startSize=26;horizontalStack=0;resizeParent=1;resizeParentMax=0;resizeLast=0;collapsible=1;marginBottom=0;" vertex="1" parent="1">
          <mxGeometry x="70" y="190" width="160" height="100" as="geometry" />
        </mxCell>
        <mxCell id="OnlBeC4UY8B8spM-u4OG-17" value="dataAluguel:date&#xa;horarioInicio: time&#xa;horarioFim&#xa;valorCobrado:real" style="text;strokeColor=none;fillColor=none;align=left;verticalAlign=top;spacingLeft=4;spacingRight=4;overflow=hidden;rotatable=0;points=[[0,0.5],[1,0.5]];portConstraint=eastwest;" vertex="1" parent="OnlBeC4UY8B8spM-u4OG-16">
          <mxGeometry y="26" width="160" height="74" as="geometry" />
        </mxCell>
        <mxCell id="OnlBeC4UY8B8spM-u4OG-23" value="" style="line;strokeWidth=1;fillColor=none;align=left;verticalAlign=middle;spacingTop=-1;spacingLeft=3;spacingRight=3;rotatable=0;labelPosition=right;points=[];portConstraint=eastwest;" vertex="1" parent="1">
          <mxGeometry x="150" y="260" width="40" height="8" as="geometry" />
        </mxCell>
        <mxCell id="OnlBeC4UY8B8spM-u4OG-28" value="Cliente" style="swimlane;fontStyle=1;align=center;verticalAlign=top;childLayout=stackLayout;horizontal=1;startSize=26;horizontalStack=0;resizeParent=1;resizeParentMax=0;resizeLast=0;collapsible=1;marginBottom=0;" vertex="1" parent="1">
          <mxGeometry x="70" y="350" width="160" height="100" as="geometry" />
        </mxCell>
        <mxCell id="OnlBeC4UY8B8spM-u4OG-29" value="nome:string&#xa;email:string&#xa;telefone:string" style="text;strokeColor=none;fillColor=none;align=left;verticalAlign=top;spacingLeft=4;spacingRight=4;overflow=hidden;rotatable=0;points=[[0,0.5],[1,0.5]];portConstraint=eastwest;" vertex="1" parent="OnlBeC4UY8B8spM-u4OG-28">
          <mxGeometry y="26" width="160" height="74" as="geometry" />
        </mxCell>
        <mxCell id="OnlBeC4UY8B8spM-u4OG-31" value="Aluguel" style="swimlane;fontStyle=1;align=center;verticalAlign=top;childLayout=stackLayout;horizontal=1;startSize=26;horizontalStack=0;resizeParent=1;resizeParentMax=0;resizeLast=0;collapsible=1;marginBottom=0;" vertex="1" parent="1">
          <mxGeometry x="280" y="190" width="160" height="100" as="geometry" />
        </mxCell>
        <mxCell id="OnlBeC4UY8B8spM-u4OG-32" value="dataAluguel:date&#xa;horarioInicio: time&#xa;horarioFim&#xa;valorCobrado:real" style="text;strokeColor=none;fillColor=none;align=left;verticalAlign=top;spacingLeft=4;spacingRight=4;overflow=hidden;rotatable=0;points=[[0,0.5],[1,0.5]];portConstraint=eastwest;" vertex="1" parent="OnlBeC4UY8B8spM-u4OG-31">
          <mxGeometry y="26" width="160" height="74" as="geometry" />
        </mxCell>
        <mxCell id="OnlBeC4UY8B8spM-u4OG-33" value="Hotel" style="swimlane;fontStyle=1;align=center;verticalAlign=top;childLayout=stackLayout;horizontal=1;startSize=26;horizontalStack=0;resizeParent=1;resizeParentMax=0;resizeLast=0;collapsible=1;marginBottom=0;" vertex="1" parent="1">
          <mxGeometry x="70" y="-110" width="160" height="100" as="geometry" />
        </mxCell>
        <mxCell id="OnlBeC4UY8B8spM-u4OG-34" value="nomeFantasia:string&#xa;cnpj:string&#xa;" style="text;strokeColor=none;fillColor=none;align=left;verticalAlign=top;spacingLeft=4;spacingRight=4;overflow=hidden;rotatable=0;points=[[0,0.5],[1,0.5]];portConstraint=eastwest;" vertex="1" parent="OnlBeC4UY8B8spM-u4OG-33">
          <mxGeometry y="26" width="160" height="74" as="geometry" />
        </mxCell>
        <mxCell id="OnlBeC4UY8B8spM-u4OG-35" value="Endereco" style="swimlane;fontStyle=1;align=center;verticalAlign=top;childLayout=stackLayout;horizontal=1;startSize=26;horizontalStack=0;resizeParent=1;resizeParentMax=0;resizeLast=0;collapsible=1;marginBottom=0;" vertex="1" parent="1">
          <mxGeometry x="290" y="30" width="170" height="140" as="geometry" />
        </mxCell>
        <mxCell id="OnlBeC4UY8B8spM-u4OG-36" value="Logadouro:string&#xa;numero:string&#xa;complemento:string&#xa;bairro:string&#xa;cidade:string&#xa;cep:string&#xa;uf:string" style="text;strokeColor=none;fillColor=none;align=left;verticalAlign=top;spacingLeft=4;spacingRight=4;overflow=hidden;rotatable=0;points=[[0,0.5],[1,0.5]];portConstraint=eastwest;" vertex="1" parent="OnlBeC4UY8B8spM-u4OG-35">
          <mxGeometry y="26" width="170" height="114" as="geometry" />
        </mxCell>
        <mxCell id="OnlBeC4UY8B8spM-u4OG-37" value="ItemHotel" style="swimlane;fontStyle=1;align=center;verticalAlign=top;childLayout=stackLayout;horizontal=1;startSize=26;horizontalStack=0;resizeParent=1;resizeParentMax=0;resizeLast=0;collapsible=1;marginBottom=0;" vertex="1" parent="1">
          <mxGeometry x="290" y="-110" width="160" height="80" as="geometry" />
        </mxCell>
        <mxCell id="OnlBeC4UY8B8spM-u4OG-38" value="descricap:string" style="text;strokeColor=none;fillColor=none;align=left;verticalAlign=top;spacingLeft=4;spacingRight=4;overflow=hidden;rotatable=0;points=[[0,0.5],[1,0.5]];portConstraint=eastwest;" vertex="1" parent="OnlBeC4UY8B8spM-u4OG-37">
          <mxGeometry y="26" width="160" height="54" as="geometry" />
        </mxCell>
      </root>
    </mxGraphModel>
  </diagram>
</mxfile>
